<svg width="32" height="32" viewBox="0 0 32 32" fill="none" xmlns="http://www.w3.org/2000/svg">
<path d="M16 32C24.8366 32 32 24.8366 32 16C32 7.16344 24.8366 0 16 0C7.16344 0 0 7.16344 0 16C0 24.8366 7.16344 32 16 32Z" fill="#6662FF"/>
<path fill-rule="evenodd" clip-rule="evenodd" d="M19.7232 14.5086C17.3962 13.52 14.799 13.52 12.472 14.5086C11.977 14.7188 11.4052 14.488 11.195 13.993C10.9847 13.498 11.2155 12.9263 11.7105 12.716C14.5242 11.5208 17.671 11.5208 20.4847 12.716C20.9797 12.9263 21.2105 13.498 21.0003 13.993C20.79 14.488 20.2182 14.7188 19.7232 14.5086Z" fill="white"/>
<path fill-rule="evenodd" clip-rule="evenodd" d="M15.6966 7.14662C15.9544 7.02998 16.2502 7.03127 16.507 7.15016L24.8767 11.0248C25.1318 11.1429 25.3234 11.3655 25.4022 11.6353C25.4811 11.9051 25.4395 12.1958 25.2882 12.4327L16.9186 25.5352C16.7407 25.8138 16.4336 25.9831 16.1031 25.9848C15.7725 25.9865 15.4637 25.8205 15.2828 25.5438L6.71779 12.4413C6.56219 12.2033 6.51841 11.9092 6.59796 11.6361C6.6775 11.3631 6.87242 11.1385 7.13151 11.0213L15.6966 7.14662ZM8.96997 12.3272L16.0885 23.2169L23.0467 12.3238L16.0933 9.10477L8.96997 12.3272Z" fill="white"/>
<path fill-rule="evenodd" clip-rule="evenodd" d="M16.0978 12.2307C16.6356 12.2307 17.0716 12.6667 17.0716 13.2045V25.0112C17.0716 25.549 16.6356 25.985 16.0978 25.985C15.56 25.985 15.124 25.549 15.124 25.0112V13.2045C15.124 12.6667 15.56 12.2307 16.0978 12.2307Z" fill="white"/>
</svg>
